<?xml version="1.0" encoding="iso-8859-1"?>
<!-- Generator: Adobe Illustrator 16.0.0, SVG Export Plug-In . SVG Version: 6.00 Build 0)  -->
<!DOCTYPE svg PUBLIC "-//W3C//DTD SVG 1.1//EN" "http://www.w3.org/Graphics/SVG/1.1/DTD/svg11.dtd">
<svg version="1.1" id="Capa_1" xmlns="http://www.w3.org/2000/svg" xmlns:xlink="http://www.w3.org/1999/xlink" x="0px" y="0px"
	 width="548.653px" height="548.654px" viewBox="0 0 548.653 548.654" style="enable-background:new 0 0 548.653 548.654;"
	 xml:space="preserve">
<g>
	<g>
		<path d="M369.954,99.146c-24.92,24.92-95.63,22.43-95.63,22.43s-70.71,2.491-95.631-22.43
			c-24.92-24.921-101.549-2.179-122.418,32.393C35.405,166.117-8.518,277.324,1.451,386.351
			c9.97,109.028,61.053,74.138,102.798,39.872c41.738-34.266,55.441-64.168,170.075-64.168c114.633,0,128.335,29.902,170.081,64.168
			c41.738,34.266,92.828,69.156,102.798-39.872c9.969-109.027-33.954-220.234-54.823-254.812
			C471.504,96.967,394.875,74.225,369.954,99.146z M426.98,132.157c12.853,0,23.305,10.453,23.305,23.305
			c0,12.852-10.452,23.305-23.305,23.305c-12.852,0-23.305-10.453-23.305-23.305C403.676,142.61,414.135,132.157,426.98,132.157z
			 M280.749,152.482l0.307,0.055c16.027,3.023,28.653,15.827,31.456,31.861c0.288,1.659-0.826,3.25-2.49,3.538
			c-0.178,0.037-0.355,0.049-0.526,0.049c-1.463,0-2.754-1.046-3.012-2.534c-2.362-13.538-13.022-24.345-26.523-26.897
			c-1.652-0.312-2.901-1.928-2.595-3.58C277.665,153.314,279.091,152.194,280.749,152.482z M235.162,183.902
			c3.048-16.114,15.894-28.746,31.977-31.5c1.683-0.263,3.25,0.839,3.531,2.503c0.288,1.659-0.832,3.244-2.497,3.531
			c-13.581,2.326-24.425,12.987-26.989,26.536c-0.282,1.481-1.598,2.595-3.06,2.595c-0.171,0-0.349-0.019-0.526-0.055
			c-1.659-0.306-2.772-1.793-2.466-3.452l3.011,0.551L235.162,183.902z M76.746,185.052c0-22.62,18.403-41.022,41.028-41.022
			c22.626,0,41.022,18.403,41.022,41.022s-18.403,41.028-41.022,41.028C95.155,226.081,76.746,207.672,76.746,185.052z
			 M197.12,340.25c-28.366,0-51.445-23.079-51.445-51.444c0-28.367,23.079-51.445,51.445-51.445s51.444,23.079,51.444,51.445
			C248.571,317.17,225.486,340.25,197.12,340.25z M267.145,229.833c-0.178,0-0.361-0.019-0.545-0.049l0.545-3.011l-0.606,2.999
			c-16.157-3.06-28.794-15.955-31.518-32.093c-0.281-1.665,0.845-3.244,2.509-3.525c1.659-0.306,3.244,0.845,3.525,2.509
			c2.295,13.629,12.969,24.51,26.555,27.087c1.659,0.312,2.797,1.916,2.491,3.574C269.832,228.792,268.583,229.833,267.145,229.833z
			 M273.785,222.36c-17.209,0-31.218-14.002-31.218-31.218c0-17.215,14.003-31.218,31.218-31.218
			c17.209,0,31.212,14.003,31.212,31.218C304.997,208.357,290.994,222.36,273.785,222.36z M279.709,229.973
			c-1.469,0-2.767-1.065-3.018-2.558c-0.275-1.665,0.851-3.244,2.516-3.519c13.672-2.271,24.597-12.95,27.173-26.573
			c0.312-1.652,1.928-2.931,3.593-2.644c1.652,0.3,2.79,1.677,2.503,3.335c-0.007,0.037-0.092,0.477-0.099,0.514
			c-3.041,16.065-15.973,28.708-32.166,31.401C280.046,229.961,279.874,229.973,279.709,229.973z M336.606,321.938
			c-22.619,0-41.022-18.402-41.022-41.021c0-22.62,18.403-41.023,41.022-41.023s41.028,18.403,41.028,41.023
			C377.635,303.536,359.232,321.938,336.606,321.938z M386.649,219.098c-12.852,0-23.305-10.453-23.305-23.305
			s10.453-23.305,23.305-23.305c12.853,0,23.306,10.453,23.306,23.305S399.502,219.098,386.649,219.098z M426.98,259.429
			c-12.852,0-23.305-10.453-23.305-23.305c0-12.852,10.453-23.305,23.305-23.305c12.853,0,23.305,10.453,23.305,23.305
			C450.285,248.976,439.833,259.429,426.98,259.429z M467.312,219.098c-12.853,0-23.305-10.453-23.305-23.305
			s10.452-23.305,23.305-23.305c12.852,0,23.305,10.453,23.305,23.305S480.163,219.098,467.312,219.098z"/>
		<circle cx="467.312" cy="195.793" r="17.185"/>
		<path d="M336.606,252.134c-15.869,0-28.782,12.907-28.782,28.783c0,15.875,12.913,28.782,28.782,28.782
			c15.875,0,28.788-12.907,28.788-28.782C365.395,265.041,352.481,252.134,336.606,252.134z"/>
		<circle cx="426.98" cy="236.124" r="17.185"/>
		<circle cx="386.649" cy="195.793" r="17.185"/>
		<path d="M289.746,171.943c-3.336,1.579-8.69,4.174-9.217,7.05c0,0,14.369,13.99,13.55,26.787
			c2.986-4.131,4.798-9.162,4.798-14.633C298.877,183.4,295.278,176.552,289.746,171.943z"/>
		<path d="M273.553,185.291c-12.791,9.877-16.897,18.152-18.219,22.724c4.59,5.019,11.132,8.231,18.452,8.231
			c7.123,0,13.531-3.017,18.103-7.809C290.7,203.963,286.734,195.475,273.553,185.291z"/>
		<path d="M284.593,168.596c-3.286-1.585-6.922-2.546-10.808-2.546c-3.898,0-7.54,0.967-10.838,2.558
			c5.832,0.379,9.669,2.864,10.6,3.531C274.501,171.46,278.516,168.877,284.593,168.596z"/>
		<path d="M117.774,156.27c-15.875,0-28.788,12.907-28.788,28.782c0,15.875,12.913,28.789,28.788,28.789
			c15.869,0,28.783-12.913,28.783-28.789C146.557,169.177,133.643,156.27,117.774,156.27z"/>
		<path d="M257.653,172.084c-5.435,4.608-8.966,11.396-8.966,19.064c0,5.202,1.597,10.043,4.321,14.051
			c-0.361-12.638,13.562-26.206,13.562-26.206C266.062,176.203,261,173.675,257.653,172.084z"/>
		<circle cx="426.98" cy="155.462" r="17.185"/>
		<path d="M197.12,243.48c-24.994,0-45.325,20.337-45.325,45.325c0,24.993,20.336,45.324,45.325,45.324
			c24.994,0,45.325-20.337,45.325-45.324C242.451,263.811,222.114,243.48,197.12,243.48z M182.53,316.975v3.525
			c-7.54-3.482-13.617-9.565-17.099-17.1h3.525h3.464c2.473,4.174,5.937,7.632,10.11,10.104V316.975z M182.53,260.634v3.464
			c-4.174,2.473-7.632,5.937-10.11,10.11h-3.464h-3.525c3.482-7.54,9.565-13.617,17.105-17.105v3.531H182.53z M211.716,320.5v-3.525
			v-3.464c4.167-2.473,7.631-5.937,10.104-10.104h3.47h3.525C225.333,310.935,219.256,317.012,211.716,320.5z M225.291,274.208
			h-3.464c-2.472-4.174-5.936-7.632-10.104-10.11v-3.464v-3.525c7.534,3.482,13.617,9.565,17.099,17.099H225.291z"/>
	</g>
</g>
<g>
</g>
<g>
</g>
<g>
</g>
<g>
</g>
<g>
</g>
<g>
</g>
<g>
</g>
<g>
</g>
<g>
</g>
<g>
</g>
<g>
</g>
<g>
</g>
<g>
</g>
<g>
</g>
<g>
</g>
</svg>
